<svg width="25" height="30" viewBox="0 0 25 30" fill="none" xmlns="http://www.w3.org/2000/svg">
<path d="M1.79778 9.41019C1.29733 9.41019 0.872715 9.58471 0.523674 9.93375C0.174634 10.2828 6.10352e-05 10.7016 6.10352e-05 11.1905V18.6962C6.10352e-05 19.1972 0.174581 19.6215 0.523674 19.9706C0.872715 20.3196 1.29733 20.4942 1.79778 20.4942C2.29787 20.4942 2.71991 20.3197 3.06354 19.9706C3.40649 19.6215 3.57844 19.1972 3.57844 18.6962V11.1905C3.57844 10.7016 3.40392 10.2828 3.05482 9.93375C2.70573 9.58471 2.28663 9.41019 1.79778 9.41019Z" fill="#3C3C3C"/>
<path d="M16.2508 2.67229L17.4901 0.386041C17.5715 0.234681 17.5425 0.118615 17.403 0.0370003C17.2516 -0.033375 17.1353 0.00228532 17.054 0.14146L15.7973 2.44599C14.6915 1.95709 13.522 1.7122 12.2887 1.7122C11.0551 1.7122 9.88549 1.95714 8.78012 2.44599L7.5234 0.14146C7.44173 0.00228532 7.3254 -0.0330599 7.17436 0.0370003C7.03455 0.118982 7.00561 0.234681 7.08728 0.386041L8.32667 2.67229C7.06995 3.31318 6.06904 4.20574 5.32433 5.35191C4.57961 6.49872 4.20709 7.75192 4.20709 9.11374H20.3528C20.3528 7.75224 19.9802 6.49898 19.2355 5.35191C18.4908 4.20574 17.4956 3.31318 16.2508 2.67229ZM9.08547 5.99769C8.95144 6.13203 8.79136 6.19889 8.60529 6.19889C8.41885 6.19889 8.26202 6.13203 8.13409 5.99769C8.00615 5.86397 7.94218 5.70452 7.94218 5.51782C7.94218 5.33175 8.00615 5.17198 8.13409 5.03795C8.26202 4.90424 8.41921 4.83739 8.60529 4.83739C8.79136 4.83739 8.95144 4.90424 9.08547 5.03795C9.21918 5.1723 9.28635 5.33175 9.28635 5.51782C9.28598 5.70421 9.21887 5.86397 9.08547 5.99769ZM16.4426 5.99769C16.3144 6.13203 16.1572 6.19889 15.9715 6.19889C15.785 6.19889 15.625 6.13203 15.4912 5.99769C15.3572 5.86397 15.2904 5.70452 15.2904 5.51782C15.2904 5.33175 15.3572 5.17198 15.4912 5.03795C15.625 4.90424 15.785 4.83739 15.9715 4.83739C16.1576 4.83739 16.3144 4.90424 16.4426 5.03795C16.5707 5.1723 16.6345 5.33175 16.6345 5.51782C16.6345 5.70421 16.5706 5.86397 16.4426 5.99769Z" fill="#3C3C3C"/>
<path d="M4.27643 21.3667C4.27643 21.9025 4.4625 22.356 4.8347 22.7282C5.20722 23.1004 5.66077 23.2865 6.1962 23.2865H7.48796L7.50566 27.2493C7.50566 27.7497 7.68018 28.1746 8.02922 28.5237C8.37826 28.8728 8.79741 29.0473 9.28594 29.0473C9.78608 29.0473 10.211 28.8728 10.5601 28.5237C10.9091 28.1746 11.0837 27.7497 11.0837 27.2493V23.2869H13.4924V27.2493C13.4924 27.7497 13.6669 28.1746 14.016 28.5237C14.365 28.8728 14.7896 29.0473 15.2901 29.0473C15.7902 29.0473 16.2151 28.8728 16.5642 28.5237C16.9133 28.1746 17.0877 27.7497 17.0877 27.2493V23.2869H18.3969C18.9205 23.2869 19.3682 23.1007 19.7411 22.7285C20.1132 22.3563 20.2994 21.9028 20.2994 21.367V9.74141H4.27643V21.3667Z" fill="#3C3C3C"/>
<path d="M22.7791 9.41019C22.2902 9.41019 21.8714 9.58213 21.5223 9.92508C21.1732 10.2687 20.9987 10.6907 20.9987 11.1905V18.6962C20.9987 19.1972 21.1732 19.6215 21.5223 19.9706C21.8714 20.3197 22.2905 20.4942 22.7791 20.4942C23.2792 20.4942 23.7041 20.3197 24.0532 19.9706C24.4023 19.6215 24.5767 19.1972 24.5767 18.6962V11.1905C24.5767 10.6906 24.4023 10.2687 24.0532 9.92508C23.7041 9.58213 23.2792 9.41019 22.7791 9.41019Z" fill="#3C3C3C"/>
</svg>
