<svg width="26" height="30" viewBox="0 0 26 30" fill="none" xmlns="http://www.w3.org/2000/svg">
<path d="M18.4128 0.491699C16.8922 0.596872 15.115 1.57017 14.0793 2.83759C13.1345 3.98737 12.3573 5.69509 12.6603 7.35469C14.3217 7.40638 16.0384 6.40991 17.033 5.1211C17.9636 3.92141 18.6677 2.22438 18.4128 0.491699Z" fill="#3C3C3C"/>
<path d="M24.422 10.0607C22.962 8.22995 20.9102 7.16753 18.9726 7.16753C16.4145 7.16753 15.3325 8.39217 13.5553 8.39217C11.7228 8.39217 10.3306 7.17109 8.11835 7.17109C5.94537 7.17109 3.63156 8.49912 2.16449 10.7701C0.102027 13.9681 0.45498 19.9808 3.79734 25.1022C4.99346 26.9347 6.59067 28.9954 8.67987 29.0132C10.5391 29.031 11.0632 27.8207 13.582 27.8082C16.1008 27.7939 16.5785 29.0293 18.4342 29.0097C20.5252 28.9936 22.2098 26.7101 23.4059 24.8776C24.2633 23.5638 24.5824 22.9025 25.2473 21.4194C20.4111 19.5779 19.6357 12.7007 24.422 10.0607Z" fill="#3C3C3C"/>
</svg>
