<svg width="53" height="61" viewBox="0 0 53 61" fill="none" xmlns="http://www.w3.org/2000/svg">
<path d="M46.7914 0H6.20857C2.78629 0 0 2.78629 0 6.23886V47.1851C0 50.6377 2.78629 53.424 6.20857 53.424H40.5526L38.9474 47.8211L42.824 51.4251L46.4886 54.8171L53 60.5714V6.23886C53 2.78629 50.2137 0 46.7914 0ZM35.1011 39.5531C35.1011 39.5531 34.0109 38.2509 33.1023 37.1C37.0697 35.9794 38.584 33.496 38.584 33.496C37.3423 34.3137 36.1611 34.8891 35.1011 35.2829C33.5869 35.9189 32.1331 36.3429 30.7097 36.5851C27.8023 37.1303 25.1371 36.9789 22.8657 36.5549C21.1394 36.2217 19.6554 35.7371 18.4137 35.2526C17.7171 34.98 16.96 34.6469 16.2029 34.2229C16.112 34.1623 16.0211 34.132 15.9303 34.0714C15.8697 34.0411 15.8394 34.0109 15.8091 33.9806C15.264 33.6777 14.9611 33.4657 14.9611 33.4657C14.9611 33.4657 16.4149 35.8886 20.2611 37.0394C19.3526 38.1903 18.232 39.5531 18.232 39.5531C11.5389 39.3411 8.99486 34.9497 8.99486 34.9497C8.99486 25.1977 13.356 17.2931 13.356 17.2931C17.7171 14.0223 21.8663 14.1131 21.8663 14.1131L22.1691 14.4766C16.7177 16.0514 14.204 18.444 14.204 18.444C14.204 18.444 14.8703 18.0806 15.9909 17.5657C19.2314 16.1423 21.8057 15.7486 22.8657 15.6577C23.0474 15.6274 23.1989 15.5971 23.3806 15.5971C25.228 15.3549 27.3177 15.2943 29.4983 15.5366C32.3754 15.8697 35.4646 16.7177 38.6143 18.444C38.6143 18.444 36.2217 16.1726 31.0731 14.5977L31.4971 14.1131C31.4971 14.1131 35.6463 14.0223 40.0074 17.2931C40.0074 17.2931 44.3686 25.1977 44.3686 34.9497C44.3686 34.9497 41.7943 39.3411 35.1011 39.5531ZM21.0183 25.4097C19.292 25.4097 17.9291 26.924 17.9291 28.7714C17.9291 30.6189 19.3223 32.1331 21.0183 32.1331C22.7446 32.1331 24.1074 30.6189 24.1074 28.7714C24.1377 26.924 22.7446 25.4097 21.0183 25.4097ZM32.0726 25.4097C30.3463 25.4097 28.9834 26.924 28.9834 28.7714C28.9834 30.6189 30.3766 32.1331 32.0726 32.1331C33.7989 32.1331 35.1617 30.6189 35.1617 28.7714C35.1617 26.924 33.7989 25.4097 32.0726 25.4097Z" fill="white"/>
</svg>
