<svg width="173" height="144" viewBox="0 0 173 144" fill="none" xmlns="http://www.w3.org/2000/svg">
<path d="M29.2762 120.232C31.53 121.531 32.6569 123.491 32.6569 126.112C32.6569 128.292 31.8852 130.08 30.3419 131.477C28.7985 132.873 26.9 133.571 24.6462 133.571H13.7325V107.849H23.8745C26.0793 107.849 27.9289 108.535 29.4232 109.907C30.9421 111.254 31.7015 112.981 31.7015 115.088C31.7015 117.219 30.8931 118.934 29.2762 120.232ZM23.8745 112.589H18.8035V118.248H23.8745C24.6584 118.248 25.3076 117.979 25.8221 117.44C26.361 116.901 26.6305 116.227 26.6305 115.419C26.6305 114.61 26.3733 113.936 25.8588 113.398C25.3444 112.859 24.6829 112.589 23.8745 112.589ZM24.6462 128.831C25.5036 128.831 26.214 128.549 26.7775 127.986C27.3409 127.398 27.6226 126.663 27.6226 125.781C27.6226 124.924 27.3409 124.213 26.7775 123.65C26.214 123.062 25.5036 122.768 24.6462 122.768H18.8035V128.831H24.6462ZM40.0533 126.332C40.6902 128.635 42.4173 129.786 45.2345 129.786C47.0473 129.786 48.4192 129.174 49.3501 127.949L53.1717 130.154C51.3589 132.775 48.6887 134.086 45.161 134.086C42.1233 134.086 39.6858 133.167 37.8485 131.33C36.0112 129.492 35.0925 127.177 35.0925 124.385C35.0925 121.616 35.9989 119.314 37.8117 117.476C39.6246 115.615 41.9518 114.684 44.7935 114.684C47.4883 114.684 49.7053 115.615 51.4446 117.476C53.2085 119.338 54.0904 121.641 54.0904 124.385C54.0904 124.997 54.0291 125.646 53.9067 126.332H40.0533ZM39.9798 122.658H49.3501C49.0806 121.408 48.5172 120.477 47.6598 119.865C46.8268 119.252 45.8714 118.946 44.7935 118.946C43.5197 118.946 42.4663 119.277 41.6334 119.938C40.8004 120.575 40.2492 121.482 39.9798 122.658ZM67.3708 119.755H63.2184V127.398C63.2184 128.035 63.3776 128.5 63.6961 128.794C64.0146 129.088 64.48 129.26 65.0925 129.309C65.7049 129.333 66.4643 129.321 67.3708 129.272V133.571C64.1126 133.939 61.8098 133.633 60.4624 132.653C59.1396 131.673 58.4781 129.921 58.4781 127.398V119.755H55.2812V115.198H58.4781V111.487L63.2184 110.054V115.198H67.3708V119.755ZM81.4062 114.684C83.8804 114.684 85.9872 115.627 87.7265 117.513C89.4904 119.375 90.3723 121.665 90.3723 124.385C90.3723 127.104 89.4904 129.407 87.7265 131.293C85.9872 133.155 83.8804 134.086 81.4062 134.086C78.8339 134.086 76.8496 133.192 75.4532 131.403V133.571H70.713V107.849H75.4532V117.366C76.8496 115.578 78.8339 114.684 81.4062 114.684ZM76.8864 128.133C77.8418 129.088 79.0544 129.566 80.5242 129.566C81.9941 129.566 83.2067 129.088 84.1621 128.133C85.142 127.153 85.632 125.904 85.632 124.385C85.632 122.866 85.142 121.629 84.1621 120.673C83.2067 119.693 81.9941 119.203 80.5242 119.203C79.0544 119.203 77.8418 119.693 76.8864 120.673C75.9309 121.629 75.4532 122.866 75.4532 124.385C75.4532 125.904 75.9309 127.153 76.8864 128.133ZM93.7153 133.571V106.746H98.4556V133.571H93.7153ZM116.758 115.198H121.498V133.571H116.758V131.403C115.337 133.192 113.34 134.086 110.768 134.086C108.318 134.086 106.212 133.155 104.448 131.293C102.709 129.407 101.839 127.104 101.839 124.385C101.839 121.665 102.709 119.375 104.448 117.513C106.212 115.627 108.318 114.684 110.768 114.684C113.34 114.684 115.337 115.578 116.758 117.366V115.198ZM108.012 128.133C108.968 129.088 110.18 129.566 111.65 129.566C113.12 129.566 114.333 129.088 115.288 128.133C116.268 127.153 116.758 125.904 116.758 124.385C116.758 122.866 116.268 121.629 115.288 120.673C114.333 119.693 113.12 119.203 111.65 119.203C110.18 119.203 108.968 119.693 108.012 120.673C107.057 121.629 106.579 122.866 106.579 124.385C106.579 125.904 107.057 127.153 108.012 128.133ZM134.542 134.086C131.774 134.086 129.459 133.155 127.597 131.293C125.76 129.431 124.841 127.128 124.841 124.385C124.841 121.641 125.76 119.338 127.597 117.476C129.459 115.615 131.774 114.684 134.542 114.684C136.331 114.684 137.96 115.112 139.43 115.97C140.899 116.827 142.014 117.979 142.773 119.424L138.695 121.812C138.327 121.053 137.764 120.453 137.004 120.012C136.269 119.571 135.436 119.35 134.506 119.35C133.085 119.35 131.909 119.828 130.978 120.784C130.047 121.714 129.582 122.915 129.582 124.385C129.582 125.83 130.047 127.03 130.978 127.986C131.909 128.917 133.085 129.382 134.506 129.382C135.461 129.382 136.306 129.174 137.041 128.758C137.8 128.317 138.364 127.716 138.731 126.957L142.847 129.309C142.039 130.754 140.899 131.918 139.43 132.8C137.96 133.657 136.331 134.086 134.542 134.086ZM162.294 133.571H156.782L150.094 125.23V133.571H145.354V107.849H150.094V123.282L156.415 115.198H162.074L154.688 124.274L162.294 133.571Z" fill="white"/>
<path d="M54.0686 0C63.9459 0 73.8263 0 83.703 0C83.703 25.2367 83.703 50.4808 83.703 75.7169C86.416 76.4944 86.5102 77.2229 89.3052 75.6607C89.3052 50.4429 89.3052 25.2178 89.3052 0C99.1825 0 109.062 0 118.94 0C118.94 5.69353 118.94 11.3889 118.94 17.083C118.94 18.0207 119.169 22.6053 118.828 23.0029C115.654 25.5206 112.478 28.0395 109.304 30.5571C112.516 33.2069 115.728 35.8574 118.94 38.5072C118.94 42.6599 118.94 46.8138 118.94 50.9665C118.94 53.0334 118.94 55.1015 118.94 57.1683C118.94 57.736 119.118 59.0303 118.828 59.3673C109.716 66.5644 100.602 73.7632 91.4902 80.9603C91.5084 80.9976 91.5272 81.0355 91.5461 81.0728C97.0911 81.0728 102.639 81.0728 108.184 81.0728C108.184 83.5722 108.184 86.0721 108.184 88.5714C93.3403 88.5714 78.4921 88.5714 63.6482 88.5714C63.6482 86.0721 63.6482 83.5722 63.6482 81.0728C69.6046 81.0545 75.5622 81.0355 81.5187 81.0165C81.481 80.9603 81.4439 80.904 81.4062 80.8477C72.2951 73.669 63.1803 66.4891 54.0686 59.3104C54.0686 54.1619 54.0686 49.0116 54.0686 43.863C54.0686 42.9883 53.8553 38.8852 54.181 38.5072C56.6266 36.4586 59.0735 34.4095 61.5197 32.3616C62.0319 31.9224 63.8159 30.9199 63.5364 30.332C60.3804 27.889 57.2245 25.4453 54.0686 23.0029C54.0686 15.3361 54.0686 7.66681 54.0686 0ZM60.7912 5.52532C60.7724 9.18929 60.7535 12.8545 60.7353 16.5191C60.7353 17.6917 60.4309 19.7041 60.8471 20.6344C66.2056 24.6373 71.566 28.6407 76.9251 32.6436C76.981 32.6246 77.0369 32.6057 77.0928 32.5873C77.0557 23.5675 77.0181 14.5452 76.981 5.52532C71.5848 5.52532 66.1874 5.52532 60.7912 5.52532ZM96.0278 5.52532C96.009 14.5635 95.9901 23.6048 95.9713 32.6436C95.9901 32.6436 96.009 32.6436 96.0278 32.6436C101.442 28.6034 106.858 24.5621 112.274 20.5219C112.255 15.5232 112.236 10.5234 112.218 5.52532C106.821 5.52532 101.423 5.52532 96.0278 5.52532ZM68.6336 34.8989C66.1133 36.8905 63.5917 38.8827 61.0713 40.875C61.0713 44.8209 61.0713 48.7681 61.0713 52.7147C61.0713 53.4481 60.8951 56.4955 61.1831 56.8301C66.4675 60.8323 71.7531 64.8364 77.0369 68.8386C77.0369 61.8862 77.0369 54.9314 77.0369 47.9784C77.0369 46.2119 77.0369 44.4454 77.0369 42.6788C77.0369 42.1595 77.1858 41.0658 76.9251 40.7618C74.1617 38.8075 71.3971 36.8532 68.6336 34.8989ZM104.319 34.8989C101.536 36.8532 98.7536 38.8075 95.9713 40.7618C95.9713 47.8463 95.9713 54.9326 95.9713 62.0171C95.9713 63.7268 95.9713 65.4376 95.9713 67.1473C95.9713 67.6366 95.8279 68.6367 96.1396 68.8386C101.405 64.8364 106.672 60.8323 111.938 56.8301C111.938 51.4931 111.938 46.155 111.938 40.8187C109.398 38.8454 106.858 36.8715 104.319 34.8989Z" fill="url(#paint0_linear_2_100)"/>
<defs>
<linearGradient id="paint0_linear_2_100" x1="86.5076" y1="-21.837" x2="86.5076" y2="51.0754" gradientUnits="userSpaceOnUse">
<stop stop-color="#C68E5B"/>
<stop offset="1" stop-color="#7C420E"/>
</linearGradient>
</defs>
</svg>
