<svg width="131" height="27" viewBox="0 0 131 27" fill="none" xmlns="http://www.w3.org/2000/svg">
<path d="M20.8318 0H2.76408C1.24047 0 0 1.24047 0 2.77757V21.007C0 22.5441 1.24047 23.7846 2.76408 23.7846H18.0542L17.3396 21.2902L19.0654 22.8947L20.6969 24.4048L23.5958 26.9667V2.77757C23.5958 1.24047 22.3554 0 20.8318 0ZM15.6272 17.6092C15.6272 17.6092 15.1418 17.0294 14.7373 16.5171C16.5036 16.0182 17.1778 14.9126 17.1778 14.9126C16.625 15.2766 16.0991 15.5328 15.6272 15.7081C14.953 15.9912 14.3058 16.18 13.6721 16.2879C12.3777 16.5306 11.1912 16.4632 10.1799 16.2744C9.41137 16.1261 8.75068 15.9103 8.19787 15.6946C7.88775 15.5732 7.55067 15.4249 7.21358 15.2362C7.17313 15.2092 7.13268 15.1957 7.09223 15.1687C7.06527 15.1553 7.05178 15.1418 7.0383 15.1283C6.7956 14.9935 6.66077 14.8991 6.66077 14.8991C6.66077 14.8991 7.30797 15.9777 9.02035 16.4901C8.61585 17.0025 8.11697 17.6092 8.11697 17.6092C5.13715 17.5149 4.00455 15.5598 4.00455 15.5598C4.00455 11.2181 5.94615 7.69898 5.94615 7.69898C7.88775 6.24278 9.73497 6.28323 9.73497 6.28323L9.8698 6.44503C7.4428 7.14617 6.32368 8.21135 6.32368 8.21135C6.32368 8.21135 6.62032 8.04955 7.1192 7.82033C8.56192 7.18662 9.708 7.01133 10.1799 6.97088C10.2608 6.9574 10.3282 6.94392 10.4091 6.94392C11.2316 6.83605 12.162 6.80908 13.1328 6.91695C14.4137 7.06527 15.789 7.4428 17.1912 8.21135C17.1912 8.21135 16.1261 7.2001 13.8339 6.49897L14.0227 6.28323C14.0227 6.28323 15.8699 6.24278 17.8115 7.69898C17.8115 7.69898 19.7531 11.2181 19.7531 15.5598C19.7531 15.5598 18.607 17.5149 15.6272 17.6092ZM9.35743 11.3125C8.58888 11.3125 7.98213 11.9867 7.98213 12.8092C7.98213 13.6316 8.60237 14.3058 9.35743 14.3058C10.126 14.3058 10.7327 13.6316 10.7327 12.8092C10.7462 11.9867 10.126 11.3125 9.35743 11.3125ZM14.2789 11.3125C13.5103 11.3125 12.9036 11.9867 12.9036 12.8092C12.9036 13.6316 13.5238 14.3058 14.2789 14.3058C15.0474 14.3058 15.6542 13.6316 15.6542 12.8092C15.6542 11.9867 15.0474 11.3125 14.2789 11.3125Z" fill="white"/>
<path d="M77.7431 2.23855C76.5416 3.07652 75.2113 3.71743 73.8035 4.13661C73.0478 3.27753 72.0436 2.66864 70.9266 2.39229C69.8095 2.11593 68.6336 2.18545 67.5578 2.59143C66.4821 2.99741 65.5583 3.72028 64.9116 4.66225C64.2649 5.60423 63.9263 6.71987 63.9418 7.85829V9.09885C61.7369 9.15538 59.552 8.67186 57.5819 7.69137C55.6117 6.71087 53.9174 5.26382 52.6498 3.47911C52.6498 3.47911 47.6311 14.6442 58.9231 19.6064C56.3392 21.3407 53.261 22.2102 50.1404 22.0875C61.4324 28.2903 75.2338 22.0875 75.2338 7.82107C75.2326 7.47552 75.199 7.13082 75.1334 6.79141C76.4139 5.54277 77.3176 3.96629 77.7431 2.23855Z" fill="white"/>
<g clip-path="url(#clip0_19_4)">
<path d="M131 0H104.288V26.7123H131V0Z" fill="white"/>
<path d="M110.662 8.93361C110.685 8.71332 110.601 8.49559 110.436 8.34733L108.761 6.32886V6.02734H113.963L117.984 14.8466L121.52 6.02734H126.48V6.32886L125.047 7.70242C124.923 7.79657 124.862 7.9513 124.888 8.10444V18.1968C124.862 18.3499 124.923 18.5047 125.047 18.5988L126.446 19.9724V20.2739H119.409V19.9724L120.858 18.5653C121 18.4229 121 18.381 121 18.1633V10.0057L116.971 20.2404H116.426L111.735 10.0057V16.8651C111.696 17.1535 111.791 17.4438 111.994 17.6524L113.879 19.9389V20.2404H108.534V19.9389L110.419 17.6524C110.621 17.4435 110.711 17.1512 110.662 16.8651V8.93361Z" fill="black"/>
</g>
<defs>
<clipPath id="clip0_19_4">
<rect width="26.7123" height="26.7123" fill="white" transform="translate(104.288)"/>
</clipPath>
</defs>
</svg>
