<svg width="60" height="60" viewBox="0 0 60 60" fill="none" xmlns="http://www.w3.org/2000/svg">
<path d="M60 0H0V60H60V0Z" fill="white"/>
<path d="M14.3183 20.0664C14.3684 19.5716 14.1797 19.0825 13.8102 18.7495L10.0467 14.2157V13.5385H21.7325L30.765 33.348L38.7062 13.5385H49.8463V14.2157L46.6284 17.3009C46.351 17.5124 46.2134 17.86 46.2709 18.2039V40.873C46.2134 41.2169 46.351 41.5645 46.6284 41.776L49.771 44.8612V45.5385H33.9641V44.8612L37.2195 41.7007C37.5394 41.3809 37.5395 41.2868 37.5395 40.7977V22.4744L28.4881 45.4632H27.2649L16.727 22.4744V37.8818C16.6391 38.5296 16.8543 39.1817 17.3103 39.6502L21.5443 44.786V45.4632H9.53859V44.786L13.7726 39.6502C14.2253 39.1809 14.4279 38.5244 14.3183 37.8818V20.0664Z" fill="black"  />
</svg>
