<svg width="28" height="29" viewBox="0 0 28 29" fill="none" xmlns="http://www.w3.org/2000/svg">
<path d="M27.9917 6.65496C27.9896 6.6427 27.9901 6.62976 27.9869 6.61773C27.9782 6.58463 27.9652 6.55281 27.9484 6.52307C27.9427 6.51285 27.9342 6.50468 27.9274 6.49515C27.9153 6.47598 27.9016 6.4579 27.8864 6.44112C27.8771 6.43158 27.8654 6.425 27.8553 6.41637C27.8402 6.4024 27.8241 6.38965 27.807 6.37824L27.8041 6.3771L27.8016 6.37529L24.5055 4.47367C24.4458 4.43925 24.3782 4.42114 24.3094 4.42114C24.2406 4.42114 24.173 4.43925 24.1133 4.47367L20.8154 6.37506L20.8129 6.37688L20.81 6.37801C20.7928 6.38949 20.7766 6.40232 20.7615 6.41637C20.7513 6.42477 20.7389 6.43158 20.7306 6.44089C20.7152 6.45787 20.7013 6.47618 20.6891 6.4956C20.6826 6.50513 20.6742 6.51308 20.6686 6.52307C20.6518 6.55282 20.6388 6.58463 20.6301 6.61773C20.6269 6.6293 20.6274 6.64179 20.6253 6.65359C20.6206 6.67533 20.6177 6.69743 20.6168 6.71965V7.52892L17.6836 5.67929C17.6879 5.65941 17.6906 5.63922 17.6917 5.61891V2.29874C17.6907 2.2769 17.6878 2.25518 17.6832 2.23382C17.6811 2.22156 17.6816 2.20862 17.6784 2.19659C17.6697 2.16357 17.6567 2.13183 17.6399 2.10216C17.632 2.09036 17.6235 2.07899 17.6144 2.06811C17.6035 2.05123 17.5914 2.03522 17.5781 2.02021C17.5662 2.00964 17.5537 1.99978 17.5407 1.9907C17.5273 1.9786 17.5132 1.96745 17.4983 1.95733H17.4961L17.4945 1.95392L14.1964 0.052535C14.1366 0.0181102 14.069 0 14.0002 0C13.9314 0 13.8638 0.0181102 13.8041 0.052535L10.506 1.95392L10.5033 1.95597H10.501C10.4861 1.96615 10.4718 1.97738 10.4584 1.98956C10.4454 1.99858 10.433 2.00836 10.4212 2.01885C10.4077 2.03406 10.3954 2.0503 10.3845 2.06743C10.3756 2.07811 10.3672 2.08924 10.3594 2.1008C10.3426 2.13054 10.3296 2.16236 10.3209 2.19546C10.3177 2.20703 10.3182 2.21952 10.3162 2.23132C10.3114 2.25306 10.3086 2.27516 10.3076 2.29738V5.61891C10.3087 5.6393 10.3114 5.65956 10.3157 5.67952L7.38324 7.52892V6.71988C7.3822 6.69803 7.37933 6.67632 7.37467 6.65496C7.37265 6.6427 7.3731 6.62976 7.36994 6.61773C7.3612 6.58463 7.34824 6.55281 7.33139 6.52307C7.32575 6.51285 7.31719 6.50468 7.31043 6.49515C7.29832 6.47598 7.28459 6.4579 7.2694 6.44112C7.26015 6.43158 7.24843 6.425 7.23829 6.41637C7.22323 6.4024 7.2071 6.38965 7.19004 6.37824L7.18711 6.3771L7.18463 6.37529L3.88809 4.47367C3.82838 4.43925 3.76076 4.42114 3.69196 4.42114C3.62315 4.42114 3.55554 4.43925 3.49583 4.47367L0.198609 6.37506L0.196129 6.37688L0.193198 6.37801C0.176059 6.38949 0.159852 6.40232 0.14473 6.41637C0.134585 6.42477 0.122186 6.43158 0.113845 6.44089C0.0984601 6.45787 0.0845805 6.47618 0.0723648 6.4956C0.0658272 6.50513 0.0574861 6.51308 0.0518502 6.52307C0.0350089 6.55282 0.022052 6.58463 0.0133007 6.61773C0.0101446 6.6293 0.0105955 6.64179 0.00856655 6.65359C0.00384624 6.67533 0.00098028 6.69743 3.51012e-09 6.71965V10.0398C-9.44473e-06 10.1111 0.0190553 10.1812 0.0551921 10.2425C0.091329 10.3039 0.143205 10.3543 0.205372 10.3885L3.29722 12.0885V16.6372L0.198609 18.4242L0.196129 18.426L0.193198 18.4272C0.176059 18.4386 0.159852 18.4515 0.14473 18.4655C0.134585 18.4739 0.122186 18.4807 0.113845 18.4901C0.0984601 18.507 0.0845805 18.5253 0.0723648 18.5448C0.0658272 18.5543 0.0574861 18.5622 0.0518502 18.5722C0.0350089 18.602 0.022052 18.6338 0.0133007 18.6669C0.0101446 18.6785 0.0105955 18.691 0.00856655 18.7028C0.00384624 18.7245 0.00098028 18.7466 3.51012e-09 18.7688V22.089C3.4742e-05 22.1604 0.0191672 22.2304 0.0553859 22.2918C0.0916046 22.3531 0.143571 22.4035 0.205823 22.4377L3.50282 24.2498C3.52135 24.2589 3.54057 24.2665 3.5603 24.2725C3.5709 24.2764 3.58082 24.2821 3.59164 24.2848C3.65725 24.3028 3.72644 24.3028 3.79205 24.2848C3.80287 24.2818 3.81279 24.2762 3.82339 24.2725C3.84312 24.2665 3.86234 24.2589 3.88087 24.2498L6.68033 22.711L10.3098 25.1442V26.7907C10.3098 26.862 10.3289 26.932 10.365 26.9934C10.4012 27.0548 10.4531 27.1052 10.5152 27.1394L13.8122 28.9515C13.8307 28.9606 13.85 28.9682 13.8697 28.9742C13.8803 28.9781 13.8902 28.9838 13.901 28.9865C13.9666 29.0045 14.0358 29.0045 14.1014 28.9865C14.1123 28.9836 14.1222 28.9779 14.1328 28.9742C14.1525 28.9682 14.1717 28.9606 14.1903 28.9515L17.4864 27.1389C17.5485 27.1047 17.6004 27.0543 17.6365 26.9929C17.6727 26.9316 17.6917 26.8616 17.6917 26.7902V25.1438L21.3212 22.7105L24.1207 24.2494C24.1392 24.2585 24.1585 24.2661 24.1782 24.2721C24.1888 24.2759 24.1987 24.2816 24.2095 24.2843C24.2751 24.3023 24.3443 24.3023 24.4099 24.2843C24.4208 24.2814 24.4307 24.2757 24.4413 24.2721C24.461 24.2661 24.4802 24.2585 24.4988 24.2494L27.7946 22.4377C27.8568 22.4035 27.9087 22.353 27.9448 22.2917C27.9809 22.2303 28 22.1603 28 22.089V18.769C27.999 18.7472 27.9961 18.7255 27.9914 18.7041C27.9894 18.6919 27.9899 18.6789 27.9867 18.6669C27.978 18.6338 27.965 18.602 27.9482 18.5722C27.9425 18.562 27.9339 18.5538 27.9272 18.5443C27.9151 18.5251 27.9014 18.5071 27.8862 18.4903C27.8769 18.4807 27.8652 18.4742 27.855 18.4655C27.84 18.4516 27.8239 18.4388 27.8068 18.4274L27.8039 18.4263L27.8014 18.4244L24.7028 16.6375V12.0885L27.7944 10.3892C27.8566 10.355 27.9084 10.3046 27.9446 10.2432C27.9807 10.1818 27.9998 10.1118 27.9998 10.0405V6.71988C27.9989 6.69805 27.9962 6.67633 27.9917 6.65496ZM16.388 23.518L14.0002 24.8305L11.6124 23.518L11.5114 23.4624L14.0002 22.0272L16.489 23.4614L16.388 23.518ZM6.59422 9.80419L4.08625 11.1826V8.76791L6.59422 7.38954V9.80419ZM3.69173 17.3253L6.18054 18.7604L6.07955 18.816L3.69173 20.1286L1.30392 18.816L1.20292 18.7604L3.69173 17.3253ZM6.95559 18.2919L4.08625 16.637V12.0885L6.69995 10.6518L10.3087 13.0163V15.9147L6.95559 18.2919ZM11.0977 5.38305V2.96841L13.6057 4.34768V6.76165L11.0977 5.38305ZM16.9027 5.38305L14.3947 6.76165V4.34768L16.9027 2.96886V5.38305ZM14.0002 11.3571L16.489 12.7922L16.388 12.8479L14.0002 14.1604L11.6124 12.8479L11.5114 12.7922L14.0002 11.3571ZM11.0977 13.4703L13.6057 14.8489V17.2642L11.0977 15.8852V13.4703ZM14.3947 14.8489L16.9027 13.4703V15.8852L14.3947 17.2642V14.8489ZM17.6917 13.0163L21.3005 10.6511L23.9142 12.0885V16.6372L21.0449 18.2921L17.6917 15.9147V13.0163ZM23.9138 8.76791V11.1826L21.4062 9.80419V7.38954L23.9138 8.76791ZM21.4062 21.8533V19.4385L23.9142 20.8171V23.2317L21.4062 21.8533ZM26.6965 18.816L24.3087 20.1286L21.9207 18.816L21.8197 18.7604L24.3085 17.3253L26.7973 18.7604L26.6965 18.816ZM24.3087 5.27613L26.7975 6.71125L26.6965 6.76687L24.3087 8.07941L21.9207 6.76687L21.8197 6.71125L24.3087 5.27613ZM20.631 10.1417L17.2841 12.3353L14.3947 10.6691V7.66694L17.0414 6.21184L20.617 8.46645V10.0396C20.6172 10.0741 20.6219 10.1084 20.631 10.1417ZM14.0002 0.855222L16.4888 2.29057L14.1093 3.59857L14.0002 3.6585L13.8911 3.59857L11.5116 2.29034L14.0002 0.855222ZM10.9591 6.21252L13.6057 7.66762V10.6691L10.7163 12.3353L7.36949 10.1417C7.37847 10.1084 7.38309 10.0741 7.38324 10.0396V8.46645L10.9591 6.21252ZM3.69173 5.27613L6.18054 6.71125L6.07955 6.76687L3.69173 8.07941L1.30392 6.76687L1.20292 6.71125L3.69173 5.27613ZM0.789701 7.38954L3.29767 8.76814V11.1826L0.789701 9.80419V7.38954ZM0.789701 19.4387L3.29767 20.8173V23.2319L0.789701 21.8533V19.4387ZM4.0867 20.8173L6.59467 19.4387V21.8533L4.0867 23.2317V20.8173ZM7.36137 22.2129C7.37548 22.173 7.38309 22.1311 7.38392 22.0888V18.9606L10.7296 16.588L13.6057 18.1688V21.3392L10.506 23.1262L10.5035 23.128L10.5006 23.1291C10.4834 23.1406 10.4672 23.1534 10.4521 23.1675C10.442 23.1759 10.4296 23.1827 10.4212 23.192C10.4058 23.209 10.3919 23.2273 10.3797 23.2467C10.3732 23.2562 10.3649 23.2642 10.3592 23.2742C10.3424 23.3039 10.3294 23.3357 10.3207 23.3688C10.3175 23.3804 10.318 23.3929 10.3159 23.4047C10.3112 23.4264 10.3083 23.4485 10.3074 23.4708V24.1895L7.36137 22.2129ZM11.0977 24.9295V24.1402L13.6057 25.5188V27.9334L11.0977 26.5551V24.9295ZM14.3947 27.9334V25.519L16.9027 24.1404V26.5553L14.3947 27.9334ZM17.6917 23.4708C17.6907 23.4489 17.6878 23.4272 17.6832 23.4058C17.6811 23.3936 17.6816 23.3806 17.6784 23.3686C17.6697 23.3355 17.6567 23.3037 17.6399 23.2739C17.6342 23.2637 17.6257 23.2556 17.6189 23.246C17.6068 23.2269 17.5931 23.2088 17.5779 23.192C17.5686 23.1825 17.5569 23.1759 17.5468 23.1673C17.5317 23.1533 17.5156 23.1405 17.4985 23.1291L17.4956 23.128L17.4931 23.1262L14.3947 21.3392V18.1688L17.2708 16.588L20.6172 18.9606V22.089C20.618 22.1313 20.6257 22.1733 20.6398 22.2132L17.6924 24.1897L17.6917 23.4708ZM24.7028 23.2315V20.8171L27.2108 19.4385V21.8533L24.7028 23.2315ZM24.7028 11.1823V8.76791L27.2108 7.38954V9.80419L24.7028 11.1823Z" fill="#3B3B3B"/>
</svg>
