<svg width="244" height="220" viewBox="0 0 244 220" fill="none" xmlns="http://www.w3.org/2000/svg">
<path d="M28.1823 179.548C31.7243 181.594 33.4954 184.681 33.4954 188.811C33.4954 192.247 32.2826 195.063 29.8571 197.263C27.4315 199.463 24.4476 200.563 20.9056 200.563H3.7534V160.037H19.6928C23.1579 160.037 26.0647 161.118 28.4133 163.279C30.8003 165.403 31.9939 168.124 31.9939 171.442C31.9939 174.8 30.7233 177.503 28.1823 179.548ZM19.6928 167.506H11.7231V176.421H19.6928C20.9248 176.421 21.9451 175.997 22.7536 175.148C23.6007 174.299 24.0242 173.237 24.0242 171.963C24.0242 170.69 23.6199 169.629 22.8114 168.779C22.0029 167.931 20.9633 167.506 19.6928 167.506ZM20.9056 193.095C22.2531 193.095 23.3697 192.652 24.2552 191.763C25.1407 190.837 25.5835 189.679 25.5835 188.29C25.5835 186.939 25.1407 185.821 24.2552 184.932C23.3697 184.006 22.2531 183.542 20.9056 183.542H11.7231V193.095H20.9056ZM45.1198 189.158C46.1208 192.787 48.8351 194.6 53.2627 194.6C56.1118 194.6 58.2678 193.636 59.7309 191.706L65.7371 195.179C62.8879 199.31 58.6914 201.374 53.1472 201.374C48.3731 201.374 44.5423 199.927 41.6547 197.032C38.7671 194.137 37.3232 190.49 37.3232 186.09C37.3232 181.729 38.7478 178.1 41.5969 175.206C44.446 172.273 48.1035 170.806 52.5697 170.806C56.8048 170.806 60.2891 172.273 63.0227 175.206C65.7948 178.139 67.1808 181.768 67.1808 186.09C67.1808 187.055 67.0845 188.078 66.8921 189.158H45.1198ZM45.0043 183.369H59.7309C59.3073 181.4 58.4218 179.934 57.0743 178.969C55.7653 178.005 54.2637 177.521 52.5697 177.521C50.5676 177.521 48.912 178.042 47.6031 179.085C46.294 180.089 45.4277 181.516 45.0043 183.369ZM88.0525 178.795H81.5266V190.837C81.5266 191.842 81.7768 192.574 82.2774 193.037C82.7779 193.5 83.5094 193.771 84.4719 193.848C85.4345 193.887 86.6279 193.868 88.0525 193.79V200.563C82.9318 201.142 79.3128 200.66 77.1952 199.116C75.1162 197.573 74.0767 194.813 74.0767 190.837V178.795H69.0523V171.616H74.0767V165.769L81.5266 163.511V171.616H88.0525V178.795ZM118.532 179.548C122.074 181.594 123.845 184.681 123.845 188.811C123.845 192.247 122.632 195.063 120.207 197.263C117.781 199.463 114.797 200.563 111.255 200.563H94.1029V160.037H110.042C113.507 160.037 116.414 161.118 118.763 163.279C121.15 165.403 122.343 168.124 122.343 171.442C122.343 174.8 121.073 177.503 118.532 179.548ZM110.042 167.506H102.073V176.421H110.042C111.274 176.421 112.295 175.997 113.103 175.148C113.95 174.299 114.374 173.237 114.374 171.963C114.374 170.69 113.969 169.629 113.161 168.779C112.352 167.931 111.313 167.506 110.042 167.506ZM111.255 193.095C112.603 193.095 113.719 192.652 114.605 191.763C115.49 190.837 115.933 189.679 115.933 188.29C115.933 186.939 115.49 185.821 114.605 184.932C113.719 184.006 112.603 183.542 111.255 183.542H102.073V193.095H111.255ZM128.723 200.563V158.3H136.173V200.563H128.723ZM164.938 171.616H172.388V200.563H164.938V197.148C162.704 199.966 159.567 201.374 155.524 201.374C151.674 201.374 148.363 199.908 145.591 196.974C142.857 194.003 141.49 190.374 141.49 186.09C141.49 181.806 142.857 178.197 145.591 175.263C148.363 172.292 151.674 170.806 155.524 170.806C159.567 170.806 162.704 172.215 164.938 175.032V171.616ZM151.193 191.995C152.694 193.5 154.6 194.253 156.91 194.253C159.22 194.253 161.126 193.5 162.628 191.995C164.167 190.452 164.938 188.484 164.938 186.09C164.938 183.697 164.167 181.748 162.628 180.242C161.126 178.699 159.22 177.927 156.91 177.927C154.6 177.927 152.694 178.699 151.193 180.242C149.691 181.748 148.941 183.697 148.941 186.09C148.941 188.484 149.691 190.452 151.193 191.995ZM192.888 201.374C188.536 201.374 184.898 199.908 181.973 196.974C179.085 194.042 177.642 190.413 177.642 186.09C177.642 181.768 179.085 178.139 181.973 175.206C184.898 172.273 188.536 170.806 192.888 170.806C195.698 170.806 198.259 171.481 200.569 172.832C202.879 174.184 204.63 175.997 205.824 178.274L199.414 182.037C198.836 180.842 197.95 179.895 196.757 179.2C195.602 178.506 194.293 178.158 192.83 178.158C190.597 178.158 188.749 178.911 187.286 180.416C185.822 181.884 185.092 183.774 185.092 186.09C185.092 188.368 185.822 190.258 187.286 191.763C188.749 193.231 190.597 193.963 192.83 193.963C194.332 193.963 195.66 193.636 196.815 192.979C198.008 192.284 198.894 191.339 199.472 190.142L205.94 193.848C204.669 196.126 202.879 197.958 200.569 199.348C198.259 200.699 195.698 201.374 192.888 201.374ZM236.503 200.563H227.841L217.33 187.421V200.563H209.88V160.037H217.33V184.353L227.263 171.616H236.157L224.549 185.916L236.503 200.563Z" fill="white"/>
<path d="M75.1762 10C89.4369 10 103.702 10 117.962 10C117.962 46.5268 117.962 83.0643 117.962 119.59C121.879 120.716 122.015 121.77 126.05 119.509C126.05 83.0095 126.05 46.4994 126.05 10C140.311 10 154.575 10 168.837 10C168.837 18.2406 168.837 26.4839 168.837 34.7254C168.837 36.0826 169.167 42.7182 168.675 43.2937C164.092 46.9377 159.507 50.5835 154.924 54.2274C159.562 58.0626 164.199 61.8989 168.837 65.7341C168.837 71.7446 168.837 77.7568 168.837 83.7673C168.837 86.7589 168.837 89.7522 168.837 92.7436C168.837 93.5653 169.094 95.4386 168.675 95.9264C155.519 106.343 142.36 116.763 129.205 127.179C129.231 127.233 129.258 127.288 129.286 127.342C137.292 127.342 145.301 127.342 153.307 127.342C153.307 130.96 153.307 134.578 153.307 138.195C131.876 138.195 110.439 138.195 89.0071 138.195C89.0071 134.578 89.0071 130.96 89.0071 127.342C97.6069 127.316 106.208 127.288 114.808 127.261C114.754 127.179 114.7 127.098 114.646 127.016C101.491 116.626 88.3315 106.234 75.1762 95.844C75.1762 88.3922 75.1762 80.9378 75.1762 73.4859C75.1762 72.2199 74.8682 66.2812 75.3385 65.7341C78.8694 62.769 82.4022 59.8032 85.934 56.8392C86.6735 56.2035 89.2492 54.7525 88.8457 53.9016C84.2891 50.3657 79.7326 46.8287 75.1762 43.2937C75.1762 32.197 75.1762 21.0967 75.1762 10ZM84.8822 17.9972C84.855 23.3003 84.8277 28.6052 84.8015 33.9092C84.8015 35.6064 84.362 38.5191 84.9629 39.8656C92.6994 45.6592 100.439 51.4536 108.176 57.2473C108.257 57.2198 108.338 57.1925 108.418 57.1658C108.365 44.1109 108.31 31.0523 108.257 17.9972C100.466 17.9972 92.6731 17.9972 84.8822 17.9972ZM135.756 17.9972C135.729 31.0788 135.702 44.1648 135.675 57.2473C135.702 57.2473 135.729 57.2473 135.756 57.2473C143.574 51.3997 151.393 45.5504 159.212 39.7027C159.185 32.4678 159.158 25.2312 159.132 17.9972C151.339 17.9972 143.546 17.9972 135.756 17.9972ZM96.2049 60.5116C92.5662 63.3941 88.9255 66.2776 85.2866 69.1612C85.2866 74.8724 85.2866 80.5854 85.2866 86.2976C85.2866 87.3591 85.0322 91.7698 85.448 92.2541C93.0776 98.0467 100.709 103.842 108.338 109.635C108.338 99.5721 108.338 89.506 108.338 79.4424C108.338 76.8856 108.338 74.3289 108.338 71.7719C108.338 71.0203 108.552 69.4373 108.176 68.9973C104.186 66.1687 100.195 63.3402 96.2049 60.5116ZM147.727 60.5116C143.71 63.3402 139.692 66.1687 135.675 68.9973C135.675 79.2512 135.675 89.5077 135.675 99.7616C135.675 102.236 135.675 104.712 135.675 107.187C135.675 107.895 135.468 109.343 135.918 109.635C143.52 103.842 151.124 98.0467 158.727 92.2541C158.727 84.5295 158.727 76.8033 158.727 69.0797C155.06 66.2236 151.393 63.3666 147.727 60.5116Z" fill="url(#paint0_linear_2_106)"/>
<defs>
<linearGradient id="paint0_linear_2_106" x1="122.011" y1="-21.6062" x2="122.011" y2="83.9249" gradientUnits="userSpaceOnUse">
<stop stop-color="white"/>
<stop offset="1" stop-color="white"/>
</linearGradient>
</defs>
</svg>
