<svg width="272" height="370" viewBox="0 0 272 370" fill="none" xmlns="http://www.w3.org/2000/svg">
<path d="M0.286897 0C41.6101 0 82.946 0 124.267 0C124.267 105.424 124.267 210.88 124.267 316.301C135.617 319.549 136.011 322.592 147.704 316.066C147.704 210.721 147.704 105.345 147.704 0C189.027 0 230.361 0 271.684 0C271.684 23.7843 271.684 47.5762 271.684 71.363C271.684 75.2802 272.645 94.4318 271.216 96.0927C257.937 106.61 244.652 117.133 231.372 127.65C244.81 138.719 258.249 149.791 271.684 160.861C271.684 178.208 271.684 195.561 271.684 212.908C271.684 221.543 271.684 230.182 271.684 238.816C271.684 241.187 272.431 246.594 271.216 248.002C233.096 278.067 194.965 308.14 156.845 338.205C156.921 338.361 157 338.519 157.079 338.675C180.278 338.675 203.486 338.675 226.685 338.675C226.685 349.116 226.685 359.559 226.685 370C164.586 370 102.466 370 40.3645 370C40.3645 359.559 40.3645 349.116 40.3645 338.675C65.284 338.599 90.2085 338.519 115.128 338.44C114.97 338.205 114.815 337.97 114.658 337.735C76.5401 307.746 38.4071 277.753 0.286897 247.765C0.286897 226.257 0.286897 204.742 0.286897 183.234C0.286897 179.58 -0.605361 162.44 0.757166 160.861C10.9888 152.303 21.2256 143.743 31.4598 135.188C33.6027 133.353 41.0661 129.165 39.8968 126.71C26.6935 116.504 13.4902 106.296 0.286897 96.0927C0.286897 64.0652 0.286897 32.0275 0.286897 0ZM28.4119 23.0816C28.3331 38.3875 28.2543 53.6986 28.178 69.0071C28.178 73.9055 26.9045 82.3122 28.6457 86.1988C51.0639 102.92 73.4896 119.644 95.9103 136.366C96.1442 136.287 96.3781 136.208 96.6119 136.131C96.4569 98.4512 96.2992 60.7613 96.1442 23.0816C73.5684 23.0816 50.9876 23.0816 28.4119 23.0816ZM175.829 23.0816C175.75 60.8379 175.671 98.6071 175.593 136.366C175.671 136.366 175.75 136.366 175.829 136.366C198.481 119.489 221.141 102.606 243.795 85.7286C243.716 64.8471 243.638 43.9605 243.561 23.0816C220.986 23.0816 198.402 23.0816 175.829 23.0816ZM61.2218 145.787C50.6775 154.107 40.1281 162.429 29.5838 170.752C29.5838 187.236 29.5838 203.725 29.5838 220.211C29.5838 223.275 28.8466 236.005 30.0515 237.403C52.1595 254.122 74.2726 270.849 96.378 287.568C96.378 258.525 96.378 229.472 96.378 200.426C96.378 193.046 96.378 185.667 96.378 178.287C96.378 176.118 97.0008 171.549 95.9103 170.279C84.3492 162.115 72.783 153.951 61.2218 145.787ZM210.515 145.787C198.875 153.951 187.233 162.115 175.593 170.279C175.593 199.874 175.593 229.477 175.593 259.072C175.593 266.213 175.593 273.361 175.593 280.502C175.593 282.547 174.993 286.724 176.297 287.568C198.326 270.849 220.36 254.122 242.39 237.403C242.39 215.108 242.39 192.809 242.39 170.517C231.764 162.274 221.138 154.028 210.515 145.787Z" fill="url(#paint0_linear_2_202)"/>
<defs>
<linearGradient id="paint0_linear_2_202" x1="136" y1="-91.2224" x2="136" y2="213.363" gradientUnits="userSpaceOnUse">
<stop stop-color="#C68E5B"/>
<stop offset="1" stop-color="#7C420E"/>
</linearGradient>
</defs>
</svg>
