<svg width="62" height="50" viewBox="0 0 62 50" fill="none" xmlns="http://www.w3.org/2000/svg">
<path d="M62 0.0280202C59.3013 1.91024 56.3132 3.34983 53.1509 4.29136C51.4536 2.36174 49.1979 0.994076 46.6889 0.37334C44.1799 -0.247396 41.5386 -0.0912541 39.1222 0.820648C36.7059 1.73255 34.6311 3.35622 33.1784 5.47204C31.7257 7.58787 30.9653 10.0938 31 12.6508V15.4373C26.0474 15.5643 21.14 14.4783 16.7147 12.2759C12.2894 10.0736 8.48362 6.82327 5.63636 2.81452C5.63636 2.81452 -5.63636 27.893 19.7273 39.039C13.9233 42.9344 7.00926 44.8876 0 44.612C25.3636 58.5444 56.3636 44.612 56.3636 12.5673C56.361 11.7911 56.2856 11.0168 56.1382 10.2545C59.0144 7.44983 61.0441 3.90881 62 0.0280202Z" fill="white"/>
</svg>
